<mxfile host="app.diagrams.net" modified="2023-12-29T15:06:32.345Z" agent="Mozilla/5.0 (Windows NT 10.0; Win64; x64) AppleWebKit/537.36 (KHTML, like Gecko) Chrome/120.0.0.0 Safari/537.36" etag="sFPoSrbz9zcMO7T9MB4n" version="22.1.13" type="device" pages="2">
  <diagram name="Stránka-1" id="wXX2trazdjOJ1I0KPVxf">
    <mxGraphModel dx="1793" dy="933" grid="1" gridSize="10" guides="1" tooltips="1" connect="1" arrows="1" fold="1" page="1" pageScale="1" pageWidth="827" pageHeight="1169" math="0" shadow="0">
      <root>
        <mxCell id="0" />
        <mxCell id="1" parent="0" />
        <mxCell id="GQ7bBWIwKiXTHCZu3XIU-1" value="&lt;b style=&quot;&quot;&gt;&lt;font color=&quot;#000000&quot;&gt;Digitální mapa&lt;/font&gt;&lt;/b&gt;" style="strokeWidth=1;shadow=0;dashed=0;align=center;html=1;shape=mxgraph.mockup.containers.window;align=left;verticalAlign=top;spacingLeft=8;strokeColor2=#008cff;strokeColor3=#c4c4c4;fontColor=#666666;mainText=;fontSize=17;labelBackgroundColor=none;whiteSpace=wrap;" parent="1" vertex="1">
          <mxGeometry width="340" height="520" as="geometry" />
        </mxCell>
        <mxCell id="GQ7bBWIwKiXTHCZu3XIU-12" value="" style="verticalLabelPosition=bottom;shadow=0;dashed=0;align=center;html=1;verticalAlign=top;strokeWidth=1;shape=mxgraph.mockup.misc.map;fontColor=default;opacity=30;" parent="1" vertex="1">
          <mxGeometry y="70" width="340" height="410" as="geometry" />
        </mxCell>
        <mxCell id="GQ7bBWIwKiXTHCZu3XIU-2" value="M" style="strokeWidth=1;shadow=0;dashed=0;align=center;html=1;shape=mxgraph.mockup.rrect;rSize=10;fillColor=#1093FA;strokeColor=default;" parent="1" vertex="1">
          <mxGeometry y="470" width="340" height="50" as="geometry" />
        </mxCell>
        <mxCell id="GQ7bBWIwKiXTHCZu3XIU-3" value="Menu" style="strokeColor=inherit;fillColor=inherit;gradientColor=inherit;strokeWidth=1;shadow=0;dashed=0;align=center;html=1;shape=mxgraph.mockup.rrect;rSize=0;fontSize=17;fontColor=#FFFFFF;fontStyle=1;resizeHeight=1;whiteSpace=wrap;" parent="GQ7bBWIwKiXTHCZu3XIU-2" vertex="1">
          <mxGeometry width="170" height="50" relative="1" as="geometry">
            <mxPoint x="170" as="offset" />
          </mxGeometry>
        </mxCell>
        <mxCell id="GQ7bBWIwKiXTHCZu3XIU-7" value="Mapa" style="strokeColor=inherit;fillColor=inherit;gradientColor=inherit;strokeWidth=1;shadow=0;dashed=0;align=center;html=1;shape=mxgraph.mockup.rrect;rSize=0;fontSize=17;fontColor=#FFFFFF;fontStyle=1;resizeHeight=1;whiteSpace=wrap;" parent="GQ7bBWIwKiXTHCZu3XIU-2" vertex="1">
          <mxGeometry width="170" height="50" as="geometry" />
        </mxCell>
        <mxCell id="GQ7bBWIwKiXTHCZu3XIU-8" value="" style="verticalLabelPosition=bottom;shadow=0;dashed=0;align=center;html=1;verticalAlign=top;strokeWidth=1;shape=mxgraph.mockup.navigation.mapNavigator;fillColor2=#99ddff;strokeColor2=none;strokeColor3=#ffffff;strokeColor=#999999;" parent="1" vertex="1">
          <mxGeometry x="260" y="350" width="60" height="100" as="geometry" />
        </mxCell>
        <mxCell id="GQ7bBWIwKiXTHCZu3XIU-26" value="Souřadnice středu&lt;br&gt;Měřítko" style="text;html=1;strokeColor=none;fillColor=none;align=left;verticalAlign=middle;whiteSpace=wrap;rounded=0;fontStyle=1" parent="1" vertex="1">
          <mxGeometry x="10" y="420" width="110" height="40" as="geometry" />
        </mxCell>
        <mxCell id="GQ7bBWIwKiXTHCZu3XIU-18" value="" style="strokeWidth=1;shadow=0;dashed=0;align=center;html=1;shape=mxgraph.mockup.forms.rrect;rSize=0;strokeColor=none;fillColor=#1093fa;fontColor=#FFFFFF;" parent="1" vertex="1">
          <mxGeometry y="30" width="340" height="40" as="geometry" />
        </mxCell>
        <mxCell id="GQ7bBWIwKiXTHCZu3XIU-19" value="Hlášení" style="strokeColor=default;fillColor=inherit;gradientColor=inherit;strokeWidth=1;shadow=0;dashed=0;align=center;html=1;shape=mxgraph.mockup.forms.rrect;rSize=0;fontSize=17;fontColor=#FFFFFF;whiteSpace=wrap;" parent="GQ7bBWIwKiXTHCZu3XIU-18" vertex="1">
          <mxGeometry width="110" height="40" as="geometry" />
        </mxCell>
        <mxCell id="GQ7bBWIwKiXTHCZu3XIU-20" value="Vyhledat" style="strokeColor=default;fillColor=inherit;gradientColor=inherit;strokeWidth=1;shadow=0;dashed=0;align=center;html=1;shape=mxgraph.mockup.forms.rrect;rSize=0;fontSize=17;fontColor=#FFFFFF;whiteSpace=wrap;" parent="GQ7bBWIwKiXTHCZu3XIU-18" vertex="1">
          <mxGeometry x="110" width="120" height="40" as="geometry" />
        </mxCell>
        <mxCell id="GQ7bBWIwKiXTHCZu3XIU-21" value="Moje pozice" style="strokeColor=default;fillColor=inherit;gradientColor=inherit;strokeWidth=1;shadow=0;dashed=0;align=center;html=1;shape=mxgraph.mockup.forms.rrect;rSize=0;fontSize=17;fontColor=#FFFFFF;whiteSpace=wrap;" parent="GQ7bBWIwKiXTHCZu3XIU-18" vertex="1">
          <mxGeometry x="230" width="110" height="40" as="geometry" />
        </mxCell>
        <mxCell id="GQ7bBWIwKiXTHCZu3XIU-27" value="" style="ellipse;whiteSpace=wrap;html=1;aspect=fixed;fillColor=#6d90bc;strokeColor=#6c8ebf;strokeWidth=3;" parent="1" vertex="1">
          <mxGeometry x="70" y="220" width="20" height="20" as="geometry" />
        </mxCell>
        <mxCell id="GQ7bBWIwKiXTHCZu3XIU-28" value="" style="ellipse;whiteSpace=wrap;html=1;aspect=fixed;fillColor=default;strokeColor=#6c8ebf;strokeWidth=3;" parent="1" vertex="1">
          <mxGeometry x="140" y="360" width="20" height="20" as="geometry" />
        </mxCell>
        <mxCell id="GQ7bBWIwKiXTHCZu3XIU-29" value="" style="ellipse;whiteSpace=wrap;html=1;aspect=fixed;fillColor=none;strokeColor=#6c8ebf;strokeWidth=3;" parent="1" vertex="1">
          <mxGeometry x="30" y="140" width="20" height="20" as="geometry" />
        </mxCell>
        <mxCell id="GQ7bBWIwKiXTHCZu3XIU-30" value="" style="rounded=0;whiteSpace=wrap;html=1;fillColor=#d5e8d4;strokeColor=#82b366;strokeWidth=3;" parent="1" vertex="1">
          <mxGeometry x="230" y="150" width="30" height="20" as="geometry" />
        </mxCell>
        <mxCell id="GQ7bBWIwKiXTHCZu3XIU-31" value="Uživatel A" style="text;html=1;strokeColor=none;fillColor=none;align=center;verticalAlign=middle;whiteSpace=wrap;rounded=0;fontStyle=1" parent="1" vertex="1">
          <mxGeometry x="10" y="110" width="60" height="30" as="geometry" />
        </mxCell>
        <mxCell id="GQ7bBWIwKiXTHCZu3XIU-32" value="Uživatel B" style="text;html=1;strokeColor=none;fillColor=none;align=center;verticalAlign=middle;whiteSpace=wrap;rounded=0;fontStyle=1" parent="1" vertex="1">
          <mxGeometry x="120" y="330" width="60" height="30" as="geometry" />
        </mxCell>
        <mxCell id="GQ7bBWIwKiXTHCZu3XIU-33" value="Bod Alfa" style="text;html=1;strokeColor=none;fillColor=none;align=center;verticalAlign=middle;whiteSpace=wrap;rounded=0;fontStyle=1" parent="1" vertex="1">
          <mxGeometry x="215" y="120" width="60" height="30" as="geometry" />
        </mxCell>
        <mxCell id="IEfjwR9wJfI03sF2gvPT-1" value="&lt;b style=&quot;&quot;&gt;&lt;font color=&quot;#000000&quot;&gt;Hlavní menu&lt;/font&gt;&lt;/b&gt;" style="strokeWidth=1;shadow=0;dashed=0;align=center;html=1;shape=mxgraph.mockup.containers.window;align=left;verticalAlign=top;spacingLeft=8;strokeColor2=#008cff;strokeColor3=#c4c4c4;fontColor=#666666;mainText=;fontSize=17;labelBackgroundColor=none;whiteSpace=wrap;" parent="1" vertex="1">
          <mxGeometry x="350" width="340" height="520" as="geometry" />
        </mxCell>
        <mxCell id="IEfjwR9wJfI03sF2gvPT-2" value="" style="strokeWidth=1;shadow=0;dashed=0;align=center;html=1;shape=mxgraph.mockup.rrect;rSize=10;fillColor=#1093FA;strokeColor=default;" parent="1" vertex="1">
          <mxGeometry x="350" y="470" width="340" height="50" as="geometry" />
        </mxCell>
        <mxCell id="IEfjwR9wJfI03sF2gvPT-3" value="Menu" style="strokeColor=inherit;fillColor=inherit;gradientColor=inherit;strokeWidth=1;shadow=0;dashed=0;align=center;html=1;shape=mxgraph.mockup.rrect;rSize=0;fontSize=17;fontColor=#FFFFFF;fontStyle=1;resizeHeight=1;whiteSpace=wrap;" parent="IEfjwR9wJfI03sF2gvPT-2" vertex="1">
          <mxGeometry width="170" height="50" relative="1" as="geometry">
            <mxPoint x="170" as="offset" />
          </mxGeometry>
        </mxCell>
        <mxCell id="IEfjwR9wJfI03sF2gvPT-4" value="Mapa" style="strokeColor=inherit;fillColor=inherit;gradientColor=inherit;strokeWidth=1;shadow=0;dashed=0;align=center;html=1;shape=mxgraph.mockup.rrect;rSize=0;fontSize=17;fontColor=#FFFFFF;fontStyle=1;resizeHeight=1;whiteSpace=wrap;" parent="IEfjwR9wJfI03sF2gvPT-2" vertex="1">
          <mxGeometry width="170" height="50" as="geometry" />
        </mxCell>
        <mxCell id="IEfjwR9wJfI03sF2gvPT-5" value="Kontakty" style="strokeWidth=1;shadow=0;dashed=0;align=center;html=1;shape=mxgraph.mockup.buttons.button;strokeColor=default;fontColor=#ffffff;mainText=;buttonStyle=round;fontSize=17;fontStyle=1;fillColor=#1093FA;whiteSpace=wrap;" parent="1" vertex="1">
          <mxGeometry x="360" y="50" width="100" height="100" as="geometry" />
        </mxCell>
        <mxCell id="IEfjwR9wJfI03sF2gvPT-6" value="Šablony zpráv" style="strokeWidth=1;shadow=0;dashed=0;align=center;html=1;shape=mxgraph.mockup.buttons.button;strokeColor=default;fontColor=#ffffff;mainText=;buttonStyle=round;fontSize=17;fontStyle=1;fillColor=#1093FA;whiteSpace=wrap;" parent="1" vertex="1">
          <mxGeometry x="470" y="50" width="100" height="100" as="geometry" />
        </mxCell>
        <mxCell id="IEfjwR9wJfI03sF2gvPT-7" value="Mapové symboly" style="strokeWidth=1;shadow=0;dashed=0;align=center;html=1;shape=mxgraph.mockup.buttons.button;strokeColor=default;fontColor=#ffffff;mainText=;buttonStyle=round;fontSize=17;fontStyle=1;fillColor=#1093FA;whiteSpace=wrap;" parent="1" vertex="1">
          <mxGeometry x="580" y="50" width="100" height="100" as="geometry" />
        </mxCell>
        <mxCell id="IEfjwR9wJfI03sF2gvPT-8" value="Uživatelské nastavení" style="strokeWidth=1;shadow=0;dashed=0;align=center;html=1;shape=mxgraph.mockup.buttons.button;strokeColor=default;fontColor=#ffffff;mainText=;buttonStyle=round;fontSize=17;fontStyle=1;fillColor=#1093FA;whiteSpace=wrap;" parent="1" vertex="1">
          <mxGeometry x="360" y="180" width="100" height="100" as="geometry" />
        </mxCell>
        <mxCell id="IEfjwR9wJfI03sF2gvPT-9" value="Nastavení mapy" style="strokeWidth=1;shadow=0;dashed=0;align=center;html=1;shape=mxgraph.mockup.buttons.button;strokeColor=default;fontColor=#ffffff;mainText=;buttonStyle=round;fontSize=17;fontStyle=1;fillColor=#1093FA;whiteSpace=wrap;" parent="1" vertex="1">
          <mxGeometry x="470" y="180" width="100" height="100" as="geometry" />
        </mxCell>
        <mxCell id="IEfjwR9wJfI03sF2gvPT-10" value="Připojení k sezení" style="strokeWidth=1;shadow=0;dashed=0;align=center;html=1;shape=mxgraph.mockup.buttons.button;strokeColor=default;fontColor=#ffffff;mainText=;buttonStyle=round;fontSize=17;fontStyle=1;fillColor=#1093FA;whiteSpace=wrap;" parent="1" vertex="1">
          <mxGeometry x="580" y="180" width="100" height="100" as="geometry" />
        </mxCell>
        <mxCell id="IEfjwR9wJfI03sF2gvPT-11" value="Systémové nastavení" style="strokeWidth=1;shadow=0;dashed=0;align=center;html=1;shape=mxgraph.mockup.buttons.button;strokeColor=default;fontColor=#ffffff;mainText=;buttonStyle=round;fontSize=17;fontStyle=1;fillColor=#1093FA;whiteSpace=wrap;" parent="1" vertex="1">
          <mxGeometry x="360" y="310" width="100" height="100" as="geometry" />
        </mxCell>
        <mxCell id="JDTrWuSzX2jGv_kYJbEN-19" value="&lt;b style=&quot;&quot;&gt;&lt;font color=&quot;#000000&quot;&gt;Seznam kontaktů&lt;/font&gt;&lt;/b&gt;" style="strokeWidth=1;shadow=0;dashed=0;align=center;html=1;shape=mxgraph.mockup.containers.window;align=left;verticalAlign=top;spacingLeft=8;strokeColor2=#008cff;strokeColor3=#c4c4c4;fontColor=#666666;mainText=;fontSize=17;labelBackgroundColor=none;whiteSpace=wrap;strokeColor=default;" parent="1" vertex="1">
          <mxGeometry y="530" width="340" height="520" as="geometry" />
        </mxCell>
        <mxCell id="JDTrWuSzX2jGv_kYJbEN-20" value="" style="verticalLabelPosition=bottom;shadow=0;dashed=0;align=center;html=1;verticalAlign=top;strokeWidth=1;shape=mxgraph.mockup.navigation.scrollBar;strokeColor=default;barPos=99.118;fillColor2=#99ddff;strokeColor2=none;direction=north;" parent="1" vertex="1">
          <mxGeometry x="320" y="560" width="20" height="440" as="geometry" />
        </mxCell>
        <mxCell id="JDTrWuSzX2jGv_kYJbEN-21" value="" style="strokeWidth=1;shadow=0;dashed=0;align=center;html=1;shape=mxgraph.mockup.rrect;rSize=10;fillColor=#1093FA;strokeColor=default;" parent="1" vertex="1">
          <mxGeometry y="1000" width="340" height="50" as="geometry" />
        </mxCell>
        <mxCell id="JDTrWuSzX2jGv_kYJbEN-22" value="Menu" style="strokeColor=inherit;fillColor=inherit;gradientColor=inherit;strokeWidth=1;shadow=0;dashed=0;align=center;html=1;shape=mxgraph.mockup.rrect;rSize=0;fontSize=17;fontColor=#FFFFFF;fontStyle=1;resizeHeight=1;whiteSpace=wrap;" parent="JDTrWuSzX2jGv_kYJbEN-21" vertex="1">
          <mxGeometry width="170" height="50" relative="1" as="geometry">
            <mxPoint x="170" as="offset" />
          </mxGeometry>
        </mxCell>
        <mxCell id="JDTrWuSzX2jGv_kYJbEN-23" value="Mapa" style="strokeColor=inherit;fillColor=inherit;gradientColor=inherit;strokeWidth=1;shadow=0;dashed=0;align=center;html=1;shape=mxgraph.mockup.rrect;rSize=0;fontSize=17;fontColor=#FFFFFF;fontStyle=1;resizeHeight=1;whiteSpace=wrap;" parent="JDTrWuSzX2jGv_kYJbEN-21" vertex="1">
          <mxGeometry width="170" height="50" as="geometry" />
        </mxCell>
        <mxCell id="JDTrWuSzX2jGv_kYJbEN-24" value="Menu" style="strokeWidth=1;shadow=0;dashed=0;align=center;html=1;shape=mxgraph.mockup.navigation.anchor;fontSize=17;fontColor=#666666;fontStyle=1;" parent="1" vertex="1">
          <mxGeometry x="50" y="570" width="50" height="30" as="geometry" />
        </mxCell>
        <mxCell id="JDTrWuSzX2jGv_kYJbEN-25" value="&gt;" style="strokeWidth=1;shadow=0;dashed=0;align=center;html=1;shape=mxgraph.mockup.navigation.anchor;fontSize=24;fontColor=#aaaaaa;fontStyle=1;" parent="1" vertex="1">
          <mxGeometry x="100" y="570" width="20" height="30" as="geometry" />
        </mxCell>
        <mxCell id="JDTrWuSzX2jGv_kYJbEN-26" value="Kontakty" style="strokeWidth=1;shadow=0;dashed=0;align=center;html=1;shape=mxgraph.mockup.navigation.anchor;fontSize=17;fontColor=#666666;fontStyle=1;" parent="1" vertex="1">
          <mxGeometry x="120" y="570" width="80" height="30" as="geometry" />
        </mxCell>
        <mxCell id="JDTrWuSzX2jGv_kYJbEN-27" value="" style="verticalLabelPosition=bottom;shadow=0;dashed=0;align=center;html=1;verticalAlign=top;strokeWidth=1;shape=mxgraph.mockup.graphics.simpleIcon;strokeColor=#999999;fillColor=#CCE5FF;" parent="1" vertex="1">
          <mxGeometry x="10" y="570" width="30" height="30" as="geometry" />
        </mxCell>
        <mxCell id="JDTrWuSzX2jGv_kYJbEN-28" value="" style="verticalLabelPosition=bottom;shadow=0;dashed=0;align=center;html=1;verticalAlign=top;strokeWidth=1;shape=mxgraph.mockup.graphics.simpleIcon;strokeColor=#999999;fillColor=#CCE5FF;" parent="1" vertex="1">
          <mxGeometry x="20" y="620" width="40" height="40" as="geometry" />
        </mxCell>
        <mxCell id="JDTrWuSzX2jGv_kYJbEN-29" value="&amp;nbsp;Globální chat" style="text;html=1;strokeColor=none;fillColor=none;align=left;verticalAlign=middle;whiteSpace=wrap;rounded=0;fontStyle=1;fontSize=24;fontColor=#666666;" parent="1" vertex="1">
          <mxGeometry x="60" y="620" width="240" height="40" as="geometry" />
        </mxCell>
        <mxCell id="JDTrWuSzX2jGv_kYJbEN-30" value="" style="verticalLabelPosition=bottom;shadow=0;dashed=0;align=center;html=1;verticalAlign=top;strokeWidth=1;shape=mxgraph.mockup.graphics.simpleIcon;strokeColor=#999999;fillColor=#CCE5FF;" parent="1" vertex="1">
          <mxGeometry x="20" y="670" width="40" height="40" as="geometry" />
        </mxCell>
        <mxCell id="JDTrWuSzX2jGv_kYJbEN-31" value="&amp;nbsp;Osobní rozkazy" style="text;html=1;strokeColor=none;fillColor=none;align=left;verticalAlign=middle;whiteSpace=wrap;rounded=0;fontStyle=1;fontSize=24;fontColor=#666666;" parent="1" vertex="1">
          <mxGeometry x="60" y="670" width="240" height="40" as="geometry" />
        </mxCell>
        <mxCell id="JDTrWuSzX2jGv_kYJbEN-32" value="" style="verticalLabelPosition=bottom;shadow=0;dashed=0;align=center;html=1;verticalAlign=top;strokeWidth=1;shape=mxgraph.mockup.markup.line;strokeColor=#999999;" parent="1" vertex="1">
          <mxGeometry x="10" y="720" width="300" height="20" as="geometry" />
        </mxCell>
        <mxCell id="JDTrWuSzX2jGv_kYJbEN-33" value="" style="verticalLabelPosition=bottom;shadow=0;dashed=0;align=center;html=1;verticalAlign=top;strokeWidth=1;shape=mxgraph.mockup.graphics.simpleIcon;strokeColor=#999999;fillColor=#CCE5FF;" parent="1" vertex="1">
          <mxGeometry x="20" y="750" width="40" height="40" as="geometry" />
        </mxCell>
        <mxCell id="JDTrWuSzX2jGv_kYJbEN-34" value="&amp;nbsp;Uživatel A" style="text;html=1;strokeColor=none;fillColor=none;align=left;verticalAlign=middle;whiteSpace=wrap;rounded=0;fontStyle=1;fontSize=24;fontColor=#666666;" parent="1" vertex="1">
          <mxGeometry x="60" y="750" width="240" height="40" as="geometry" />
        </mxCell>
        <mxCell id="JDTrWuSzX2jGv_kYJbEN-35" value="" style="verticalLabelPosition=bottom;shadow=0;dashed=0;align=center;html=1;verticalAlign=top;strokeWidth=1;shape=mxgraph.mockup.graphics.simpleIcon;strokeColor=#999999;fillColor=#CCE5FF;" parent="1" vertex="1">
          <mxGeometry x="20" y="800" width="40" height="40" as="geometry" />
        </mxCell>
        <mxCell id="JDTrWuSzX2jGv_kYJbEN-36" value="&amp;nbsp;Uživatel B" style="text;html=1;strokeColor=none;fillColor=none;align=left;verticalAlign=middle;whiteSpace=wrap;rounded=0;fontStyle=1;fontSize=24;fontColor=#666666;" parent="1" vertex="1">
          <mxGeometry x="60" y="800" width="240" height="40" as="geometry" />
        </mxCell>
        <mxCell id="IhkZbZOMqd7OkXrAbszF-1" value="&lt;b&gt;&lt;font color=&quot;#000000&quot;&gt;Chatovací obrazovka&lt;/font&gt;&lt;/b&gt;" style="strokeWidth=1;shadow=0;dashed=0;align=center;html=1;shape=mxgraph.mockup.containers.window;align=left;verticalAlign=top;spacingLeft=8;strokeColor2=#008cff;strokeColor3=#c4c4c4;fontColor=#666666;mainText=;fontSize=17;labelBackgroundColor=none;whiteSpace=wrap;" parent="1" vertex="1">
          <mxGeometry x="350" y="530" width="340" height="520" as="geometry" />
        </mxCell>
        <mxCell id="IhkZbZOMqd7OkXrAbszF-2" value="" style="strokeWidth=1;shadow=0;dashed=0;align=center;html=1;shape=mxgraph.mockup.rrect;rSize=10;fillColor=#1093FA;strokeColor=default;fontColor=#FFFFFF;" parent="1" vertex="1">
          <mxGeometry x="350" y="1000" width="340" height="50" as="geometry" />
        </mxCell>
        <mxCell id="IhkZbZOMqd7OkXrAbszF-3" value="Menu" style="strokeColor=inherit;fillColor=inherit;gradientColor=inherit;strokeWidth=1;shadow=0;dashed=0;align=center;html=1;shape=mxgraph.mockup.rrect;rSize=0;fontSize=17;fontColor=#FFFFFF;fontStyle=1;resizeHeight=1;whiteSpace=wrap;" parent="IhkZbZOMqd7OkXrAbszF-2" vertex="1">
          <mxGeometry width="170" height="50" relative="1" as="geometry">
            <mxPoint x="170" as="offset" />
          </mxGeometry>
        </mxCell>
        <mxCell id="IhkZbZOMqd7OkXrAbszF-4" value="Mapa" style="strokeColor=inherit;fillColor=inherit;gradientColor=inherit;strokeWidth=1;shadow=0;dashed=0;align=center;html=1;shape=mxgraph.mockup.rrect;rSize=0;fontSize=17;fontColor=#FFFFFF;fontStyle=1;resizeHeight=1;whiteSpace=wrap;" parent="IhkZbZOMqd7OkXrAbszF-2" vertex="1">
          <mxGeometry width="170" height="50" as="geometry" />
        </mxCell>
        <mxCell id="IhkZbZOMqd7OkXrAbszF-5" value="Menu" style="strokeWidth=1;shadow=0;dashed=0;align=center;html=1;shape=mxgraph.mockup.navigation.anchor;fontSize=17;fontColor=#666666;fontStyle=1;" parent="1" vertex="1">
          <mxGeometry x="400" y="570" width="50" height="30" as="geometry" />
        </mxCell>
        <mxCell id="IhkZbZOMqd7OkXrAbszF-6" value="&gt;" style="strokeWidth=1;shadow=0;dashed=0;align=center;html=1;shape=mxgraph.mockup.navigation.anchor;fontSize=24;fontColor=#aaaaaa;fontStyle=1;" parent="1" vertex="1">
          <mxGeometry x="450" y="570" width="20" height="30" as="geometry" />
        </mxCell>
        <mxCell id="IhkZbZOMqd7OkXrAbszF-7" value="Kontakty" style="strokeWidth=1;shadow=0;dashed=0;align=center;html=1;shape=mxgraph.mockup.navigation.anchor;fontSize=17;fontColor=#666666;fontStyle=1;" parent="1" vertex="1">
          <mxGeometry x="470" y="570" width="80" height="30" as="geometry" />
        </mxCell>
        <mxCell id="IhkZbZOMqd7OkXrAbszF-8" value="&gt;" style="strokeWidth=1;shadow=0;dashed=0;align=center;html=1;shape=mxgraph.mockup.navigation.anchor;fontSize=24;fontColor=#aaaaaa;fontStyle=1;" parent="1" vertex="1">
          <mxGeometry x="550" y="570" width="20" height="30" as="geometry" />
        </mxCell>
        <mxCell id="IhkZbZOMqd7OkXrAbszF-9" value="Uživatel A" style="strokeWidth=1;shadow=0;dashed=0;align=center;html=1;shape=mxgraph.mockup.navigation.anchor;fontSize=17;fontColor=#666666;fontStyle=1;" parent="1" vertex="1">
          <mxGeometry x="570" y="570" width="90" height="30" as="geometry" />
        </mxCell>
        <mxCell id="IhkZbZOMqd7OkXrAbszF-10" value="" style="verticalLabelPosition=bottom;shadow=0;dashed=0;align=center;html=1;verticalAlign=top;strokeWidth=1;shape=mxgraph.mockup.graphics.simpleIcon;strokeColor=#999999;fillColor=#CCE5FF;" parent="1" vertex="1">
          <mxGeometry x="360" y="570" width="30" height="30" as="geometry" />
        </mxCell>
        <mxCell id="IhkZbZOMqd7OkXrAbszF-11" value="" style="verticalLabelPosition=bottom;shadow=0;dashed=0;align=center;html=1;verticalAlign=top;strokeWidth=1;shape=mxgraph.mockup.navigation.scrollBar;strokeColor=default;barPos=98.627;fillColor2=#99ddff;strokeColor2=none;direction=north;" parent="1" vertex="1">
          <mxGeometry x="670" y="560" width="20" height="440" as="geometry" />
        </mxCell>
        <mxCell id="IhkZbZOMqd7OkXrAbszF-12" value="&lt;font color=&quot;#4d4d4d&quot;&gt;Napiště zprávu...&lt;/font&gt;" style="html=1;shadow=0;dashed=0;shape=mxgraph.bootstrap.rrect;rSize=5;strokeColor=default;html=1;whiteSpace=wrap;fillColor=#FFFFFF;fontColor=#FFFFFF;align=left;spacing=15;fontSize=14;" parent="1" vertex="1">
          <mxGeometry x="360" y="950" width="300" height="40" as="geometry" />
        </mxCell>
        <mxCell id="IhkZbZOMqd7OkXrAbszF-13" value="Odeslat" style="html=1;shadow=0;dashed=0;shape=mxgraph.bootstrap.rightButton;strokeColor=default;gradientColor=inherit;fontColor=inherit;fillColor=#1093FA;rSize=5;perimeter=none;whiteSpace=wrap;resizeHeight=1;fontSize=14;align=center;spacing=15;" parent="IhkZbZOMqd7OkXrAbszF-12" vertex="1">
          <mxGeometry x="1" width="61" height="40" relative="1" as="geometry">
            <mxPoint x="-61" as="offset" />
          </mxGeometry>
        </mxCell>
        <mxCell id="IhkZbZOMqd7OkXrAbszF-14" value="T" style="html=1;shadow=0;dashed=0;strokeColor=default;gradientColor=inherit;fontColor=inherit;fillColor=#1093FA;perimeter=none;whiteSpace=wrap;resizeHeight=1;fontSize=14;align=center;spacing=15;" parent="IhkZbZOMqd7OkXrAbszF-12" vertex="1">
          <mxGeometry x="1" width="43" height="40" relative="1" as="geometry">
            <mxPoint x="-104" as="offset" />
          </mxGeometry>
        </mxCell>
        <mxCell id="IhkZbZOMqd7OkXrAbszF-15" value="Lorem ipsum dolor sit amet, consectetur adipisicing elit, sed do eiusmod tempor incididunt ut labore et dolore magna aliqua." style="shape=callout;whiteSpace=wrap;html=1;perimeter=calloutPerimeter;size=10;position=0;base=30;position2=0;rounded=1;arcSize=12;strokeColor=#666666;align=left;verticalAlign=middle;spacingLeft=4;" parent="1" vertex="1">
          <mxGeometry x="360" y="620" width="240" height="70" as="geometry" />
        </mxCell>
        <mxCell id="IhkZbZOMqd7OkXrAbszF-16" value="Ut enim ad minim veniam, quis nostrud exercitation ullamco laboris nisi ut aliquip ex ea commodo consequat." style="shape=callout;whiteSpace=wrap;html=1;perimeter=calloutPerimeter;size=10;position=0.88;base=240;position2=1;rounded=1;arcSize=12;strokeColor=#666666;align=left;verticalAlign=middle;spacingLeft=4;" parent="1" vertex="1">
          <mxGeometry x="410" y="700" width="250" height="70" as="geometry" />
        </mxCell>
        <mxCell id="IhkZbZOMqd7OkXrAbszF-17" value="Servus" style="shape=callout;whiteSpace=wrap;html=1;perimeter=calloutPerimeter;size=10;position=0;base=30;position2=0;rounded=1;arcSize=12;strokeColor=#666666;align=left;verticalAlign=middle;spacingLeft=4;" parent="1" vertex="1">
          <mxGeometry x="360" y="780" width="70" height="40" as="geometry" />
        </mxCell>
      </root>
    </mxGraphModel>
  </diagram>
  <diagram id="-qrOtkm1TOo4jTx6ikzu" name="Stránka-2">
    <mxGraphModel dx="1195" dy="632" grid="1" gridSize="10" guides="1" tooltips="1" connect="1" arrows="1" fold="1" page="1" pageScale="1" pageWidth="827" pageHeight="1169" math="0" shadow="0">
      <root>
        <mxCell id="0" />
        <mxCell id="1" parent="0" />
      </root>
    </mxGraphModel>
  </diagram>
</mxfile>
